<?xml version="1.0" encoding="UTF-8"?>
<svg width="512" height="512" viewBox="0 0 512 512" xmlns="http://www.w3.org/2000/svg">
  <!-- LocalData MCP Server Logo -->
  <!-- Data flow: Files/Database -> MCP Hub -> AI/Brain -->
  
  <defs>
    <!-- Define colors -->
    <style>
      .database { fill: #475569; }
      .document { fill: #475569; stroke: #475569; stroke-width: 8; }
      .hub { fill: #3b82f6; }
      .brain { fill: #475569; stroke: #475569; stroke-width: 8; }
      .arrow { fill: #22d3ee; }
      .network { fill: white; stroke: white; stroke-width: 4; }
    </style>
  </defs>

  <!-- Left side: Database (cylinder) -->
  <g transform="translate(80, 180)">
    <!-- Database cylinder -->
    <ellipse cx="60" cy="20" rx="60" ry="20" class="database"/>
    <rect x="0" y="20" width="120" height="100" class="database"/>
    <ellipse cx="60" cy="120" rx="60" ry="20" class="database"/>
    
    <!-- Database lines -->
    <ellipse cx="60" cy="50" rx="48" ry="12" fill="white" opacity="0.3"/>
    <ellipse cx="60" cy="80" rx="48" ry="12" fill="white" opacity="0.3"/>
  </g>

  <!-- Left side: Document -->
  <g transform="translate(80, 280)">
    <!-- Document shape -->
    <path d="M0,0 L90,0 L90,30 L120,30 L120,130 L0,130 Z" class="document" fill="white"/>
    <path d="M90,0 L90,30 L120,30 Z" class="document" fill="#cbd5e1"/>
    <!-- Document lines -->
    <rect x="15" y="45" width="45" height="6" class="document"/>
    <rect x="15" y="65" width="75" height="6" class="document"/>
    <rect x="15" y="85" width="60" height="6" class="document"/>
  </g>

  <!-- Arrows from left to center -->
  <g class="arrow">
    <!-- Arrow from database to hub -->
    <path d="M220,240 L280,240 L270,230 M280,240 L270,250" fill="none" stroke="#22d3ee" stroke-width="6" stroke-linecap="round"/>
    
    <!-- Arrow from document to hub -->
    <path d="M220,340 L250,340 L250,280 L280,280 L270,270 M280,280 L270,290" fill="none" stroke="#22d3ee" stroke-width="6" stroke-linecap="round"/>
  </g>

  <!-- Center: MCP Hub (hexagon with network) -->
  <g transform="translate(256, 256)">
    <!-- Hexagon -->
    <path d="M-50,0 L-25,-43.3 L25,-43.3 L50,0 L25,43.3 L-25,43.3 Z" class="hub"/>
    
    <!-- Network pattern inside hexagon -->
    <g class="network">
      <!-- Network nodes -->
      <circle cx="-20" cy="-15" r="6"/>
      <circle cx="20" cy="-15" r="6"/>
      <circle cx="0" cy="15" r="6"/>
      <circle cx="-15" cy="25" r="4"/>
      <circle cx="15" cy="25" r="4"/>
      
      <!-- Network connections -->
      <path d="M-20,-15 L20,-15 L0,15 M0,15 L-15,25 M0,15 L15,25" 
            fill="none" stroke="white" stroke-width="3" stroke-linecap="round"/>
    </g>
  </g>

  <!-- Arrow from center to right -->
  <g class="arrow">
    <path d="M320,256 L380,256 L370,246 M380,256 L370,266" fill="none" stroke="#22d3ee" stroke-width="6" stroke-linecap="round"/>
  </g>

  <!-- Right side: Brain/AI -->
  <g transform="translate(400, 180)">
    <!-- Brain outline -->
    <path d="M20,40 C10,20 30,10 50,15 C70,5 90,15 85,35 C95,45 90,65 80,75 C85,90 70,100 50,95 C30,105 15,90 20,75 C10,65 5,50 15,40 Z" 
          class="brain" fill="white"/>
    
    <!-- Brain internal structure -->
    <g fill="#475569">
      <!-- Neural pathways -->
      <circle cx="35" cy="35" r="4"/>
      <circle cx="55" cy="45" r="4"/>
      <circle cx="45" cy="65" r="4"/>
      <circle cx="65" cy="75" r="4"/>
      
      <!-- Connections -->
      <path d="M35,35 L55,45 M55,45 L45,65 M45,65 L65,75" 
            fill="none" stroke="#475569" stroke-width="2" stroke-linecap="round"/>
      
      <!-- Additional neural elements -->
      <path d="M25,50 C35,45 40,55 45,50" fill="none" stroke="#475569" stroke-width="2"/>
      <path d="M50,75 C60,70 65,80 70,75" fill="none" stroke="#475569" stroke-width="2"/>
    </g>
  </g>
</svg>